# Blender 3.4.1
# www.blender.org
mtllib mail.mtl
o Cube
v 2.258388 0.117781 2.999101
v 2.258388 0.271180 2.999101
v -1.670652 0.117781 0.000000
v -1.670652 0.271180 0.000000
v 2.258388 0.117781 0.000000
v -0.764346 0.271180 0.000000
v 2.258388 0.271621 0.000000
v -0.764346 0.301611 0.000000
v -1.444813 0.117781 2.999101
v -1.670652 0.117781 2.699191
v -1.604506 0.117781 2.911260
v -1.670652 0.271180 2.699191
v -1.444813 0.271180 2.999101
v -1.604506 0.271180 2.911260
v 2.258388 0.117781 -2.999101
v 2.258388 0.271180 -2.999101
v -1.444813 0.117781 -2.999101
v -1.670652 0.117781 -2.699191
v -1.604506 0.117781 -2.911260
v -1.670652 0.271180 -2.699191
v -1.444813 0.271180 -2.999101
v -1.604506 0.271180 -2.911260
vn 1.0000 -0.0000 -0.0000
vn -0.0000 -1.0000 -0.0000
vn -0.0000 1.0000 -0.0000
vn -0.0000 -0.0000 1.0000
vn -0.7043 -0.0000 0.7099
vn 0.0099 1.0000 0.0001
vn -0.4820 -0.0000 0.8762
vn -0.9546 -0.0000 0.2978
vn -1.0000 -0.0000 -0.0000
vn -0.0000 -0.0000 -1.0000
vn -0.7043 -0.0000 -0.7099
vn 0.0099 1.0000 -0.0001
vn -0.4820 -0.0000 -0.8762
vn -0.9546 -0.0000 -0.2978
vt 0.000111 0.999889
vt 0.638499 0.000111
vt 0.000111 0.000112
vt 0.076685 0.999889
vt 0.472585 0.339699
vt 0.076685 0.000112
vt 0.504140 0.338469
vt 0.503132 0.235617
vt 0.077128 0.271069
vt 0.000111 0.364633
vt 0.237079 0.475067
vt 0.076685 0.364633
vt 0.503132 0.000111
vt 0.000111 0.864522
vt 0.077128 0.506575
vt 0.314087 0.461071
vt 0.291403 0.475067
vt 0.314087 0.486602
vt 0.076905 0.864522
vt 0.504122 0.473837
vt 0.322322 0.473837
vt 0.638499 0.222081
vt 0.000111 0.222081
vt 0.624963 0.235617
vt 0.000111 0.242802
vt 0.634535 0.231653
vt 0.000111 0.232441
vt 0.237079 0.353236
vt 0.076685 0.242802
vt 0.250616 0.339699
vt 0.076685 0.222081
vt 0.241044 0.343664
vt 0.076685 0.232441
vt 0.212496 0.506575
vt 0.000111 0.729154
vt 0.472585 0.610434
vt 0.076685 0.729154
vt 0.504140 0.609204
vt 0.212495 0.284606
vt 0.000111 0.507185
vt 0.198959 0.271069
vt 0.000111 0.486463
vt 0.208531 0.275034
vt 0.000111 0.496824
vt 0.237079 0.596898
vt 0.076685 0.486463
vt 0.250616 0.610434
vt 0.076685 0.507185
vt 0.241044 0.606470
vt 0.076685 0.496824
s 0
usemtl Material.003
f 7/19/1 2/4/1 1/1/1 5/14/1
f 3/8/2 5/13/2 1/2/2 9/22/2 11/26/2 10/24/2
f 2/5/3 6/17/3 4/11/3 12/28/3 14/32/3 13/30/3
f 1/3/4 2/6/4 13/31/4 9/23/4
f 6/16/5 2/7/5 8/21/5
f 2/7/6 7/20/6 8/21/6
f 9/23/7 13/31/7 14/33/7 11/27/7
f 11/27/8 14/33/8 12/29/8 10/25/8
f 10/25/9 12/29/9 4/12/9 3/10/9
f 7/19/1 5/14/1 15/35/1 16/37/1
f 3/9/2 18/41/2 19/43/2 17/39/2 15/34/2 5/15/2
f 16/36/3 21/47/3 22/49/3 20/45/3 4/11/3 6/17/3
f 15/35/10 17/40/10 21/48/10 16/37/10
f 6/18/11 8/21/11 16/38/11
f 16/38/12 8/21/12 7/20/12
f 17/40/13 19/44/13 22/50/13 21/48/13
f 19/44/14 18/42/14 20/46/14 22/50/14
f 18/42/9 3/10/9 4/12/9 20/46/9
